# xmcd CD database file
#
# Track frame offsets:
#	150
#	14099
#	41600
#	75442
#	101991
#	128124
#	155018
#	192437
#
# Disc length: 3074 seconds
#
# Revision: 1
# Processed by: cddbd v1.5.2PL0 Copyright (c) Steve Scherf et al.
# Submitted via: CDex 1.51
#
DISCID=680c0008
DTITLE=Bernard Allison Group - Live at the Jazzhaus - CD1
DYEAR=2011
DGENRE=Blues
TTITLE0=Send It In
TTITLE1=I Wouldn't Treat A Dog
TTITLE2=Rocket 88
TTITLE3=Tired Of Tryin'
TTITLE4=So Devine
TTITLE5=Black And White
TTITLE6=Life Goes On
TTITLE7=Allison Way
EXTD=YEAR: 2011
EXTT0=
EXTT1=
EXTT2=
EXTT3=
EXTT4=
EXTT5=
EXTT6=
EXTT7=
PLAYORDER=
